<svg width="20" height="20" viewBox="0 0 20 20" fill="none" xmlns="http://www.w3.org/2000/svg">
<rect x="20" y="20" width="20" height="20" rx="2" transform="rotate(180 20 20)" fill="#007AFF"/>
<path d="M11.0515 9.4L8.57574 6.92426C8.34142 6.68995 8.34142 6.31005 8.57574 6.07574C8.57574 6.07574 8.57574 6.07574 8.57574 6.07574L8.64645 6.14645L11.0515 9.4ZM11.0515 9.4L4.5 9.4C4.16868 9.4 3.9 9.66863 3.9 10C3.9 10.3314 4.16868 10.6 4.5 10.6L11.0515 10.6L8.57574 13.0757L8.57573 13.0757C8.34142 13.31 8.34142 13.69 8.57573 13.9243L8.57575 13.9243C8.81006 14.1586 9.18994 14.1586 9.42425 13.9243L9.42426 13.9243L12.9 10.4485L12.9 14.5C12.9 14.8313 13.1686 15.1 13.5 15.1C13.8314 15.1 14.1 14.8313 14.1 14.5L14.1 5.5C14.1 5.16863 13.8314 4.9 13.5 4.9C13.1686 4.9 12.9 5.16863 12.9 5.5L12.9 9.55148L11.0515 9.4Z" fill="white" stroke="white" stroke-width="0.2"/>
</svg>
