<svg width="20" height="20" viewBox="0 0 20 20" fill="none" xmlns="http://www.w3.org/2000/svg">
<rect x="20" y="20" width="20" height="20" rx="2" transform="rotate(180 20 20)" fill="#007AFF"/>
<path d="M8.94853 10.6L11.4243 13.0757C11.6586 13.31 11.6586 13.6899 11.4243 13.9243C11.4243 13.9243 11.4243 13.9243 11.4243 13.9243L11.3536 13.8535L8.94853 10.6ZM8.94853 10.6L15.5 10.6C15.8313 10.6 16.1 10.3314 16.1 10C16.1 9.66863 15.8313 9.4 15.5 9.4L8.94853 9.4L11.4243 6.92431L11.4243 6.92431C11.6586 6.68995 11.6586 6.31005 11.4243 6.0757L11.4242 6.07568C11.1899 5.84144 10.8101 5.84144 10.5757 6.07568L10.5757 6.07569L7.1 9.55148L7.1 5.5C7.1 5.16868 6.83137 4.9 6.5 4.9C6.16863 4.9 5.9 5.16868 5.9 5.5L5.9 14.5C5.9 14.8314 6.16863 15.1 6.5 15.1C6.83137 15.1 7.1 14.8314 7.1 14.5L7.1 10.4485L8.94853 10.6Z" fill="white" stroke="white" stroke-width="0.2"/>
</svg>
