<svg width="36" height="36" viewBox="0 0 36 36" fill="none" xmlns="http://www.w3.org/2000/svg">
<rect x="0.6" y="0.6" width="34.8" height="34.8" rx="3.4" stroke="#FF4D4D" stroke-width="1.2"/>
<path d="M23.7994 10.7402C20.3954 8.20506 16.9921 13.1355 13.5882 11.4208V11.056C13.5882 10.603 13.2325 10.2355 12.7941 10.2355C12.3556 10.2355 12 10.603 12 11.056V25.1795C12 25.6325 12.3556 26 12.7941 26C13.2325 26 13.5882 25.6325 13.5882 25.1795V19.1962C16.8235 20.8254 20.0589 16.4521 23.2948 18.1925C23.4442 18.2732 23.6236 18.2678 23.7678 18.177C23.9121 18.0867 24 17.9254 24 17.7507C24 15.5489 24 13.347 24 11.1446C24 10.9849 23.9249 10.8337 23.7994 10.7402Z" fill="#FF4D4D"/>
</svg>
