<svg width="96" height="16" viewBox="0 0 96 16" fill="none" xmlns="http://www.w3.org/2000/svg">
<path d="M1.88883 8.70886C1.88883 7.64221 2.1267 6.69031 2.60259 5.85316C3.09195 5.01602 3.75688 4.35443 4.59636 3.86836C5.43585 3.38228 6.38691 3.13924 7.4506 3.13924C8.52759 3.13924 9.47918 3.38228 10.3048 3.86836C11.1443 4.35443 11.8016 5.01602 12.2776 5.85316C12.767 6.69031 13.0122 7.64221 13.0122 8.70886C13.0122 9.77551 12.767 10.7274 12.2776 11.5646C11.8016 12.4017 11.1443 13.0633 10.3048 13.5494C9.47918 14.0354 8.52759 14.2785 7.4506 14.2785C6.38691 14.2785 5.43585 14.0354 4.59636 13.5494C3.75688 13.0633 3.09195 12.4017 2.60259 11.5646C2.1267 10.7274 1.88883 9.77551 1.88883 8.70886ZM0 8.70886C0 9.73501 0.181872 10.6937 0.545664 11.5848C0.92343 12.4759 1.4481 13.2523 2.11969 13.9139C2.79148 14.562 3.58182 15.0751 4.49143 15.4532C5.40053 15.8177 6.38691 16 7.4506 16C8.52759 16 9.51399 15.8177 10.4098 15.4532C11.3189 15.0751 12.1097 14.562 12.7813 13.9139C13.4529 13.2523 13.9704 12.4759 14.3343 11.5848C14.7121 10.6937 14.901 9.73501 14.901 8.70886C14.901 7.66918 14.7121 6.71056 14.3343 5.83291C13.9704 4.94177 13.4529 4.17215 12.7813 3.52405C12.1097 2.86246 11.3189 2.34937 10.4098 1.98481C9.51399 1.60677 8.52759 1.41772 7.4506 1.41772C6.38691 1.41772 5.40053 1.60677 4.49143 1.98481C3.58182 2.34937 2.79148 2.86246 2.11969 3.52405C1.4481 4.17215 0.92343 4.94177 0.545664 5.83291C0.181872 6.71056 0 7.66918 0 8.70886ZM7.11481 9.72152L13.4109 15.7975H15.7195L9.42338 9.72152H7.11481ZM18.994 12.1519V6.48101H17.315V12.3544C17.315 13.4616 17.616 14.346 18.2175 15.0076C18.8194 15.6692 19.6236 16 20.631 16C21.2749 16 21.8344 15.865 22.3099 15.5949C22.786 15.3114 23.1847 14.8928 23.5062 14.3392V15.7975H25.1852V6.48101H23.5062V12.1519C23.5062 12.611 23.4013 13.016 23.1914 13.3671C22.9958 13.7182 22.7087 13.9949 22.3309 14.1975C21.9675 14.3865 21.5406 14.481 21.0507 14.481C20.3791 14.481 19.8688 14.2785 19.5187 13.8734C19.169 13.4684 18.994 12.8945 18.994 12.1519ZM28.3414 2.63291C28.3414 2.92994 28.4535 3.19323 28.6772 3.42279C28.9152 3.6388 29.188 3.74683 29.4957 3.74683C29.8177 3.74683 30.0905 3.6388 30.3142 3.42279C30.5384 3.19323 30.65 2.92994 30.65 2.63291C30.65 2.32235 30.5384 2.05905 30.3142 1.84304C30.0905 1.62702 29.8177 1.51899 29.4957 1.51899C29.188 1.51899 28.9152 1.62702 28.6772 1.84304C28.4535 2.05905 28.3414 2.32235 28.3414 2.63291ZM28.6562 6.48101V15.7975H30.3352V6.48101H28.6562ZM33.7934 0V15.7975H35.4724V0H33.7934ZM38.6302 0V15.7975H40.3091V0H38.6302ZM44.1175 11.5038L42.6904 12.4354C43.0124 13.0565 43.4249 13.6439 43.9286 14.1975C44.4461 14.7375 45.0409 15.1764 45.7125 15.5139C46.3979 15.838 47.1396 16 47.9371 16C48.5248 16 49.0843 15.9055 49.6161 15.7165C50.1618 15.5274 50.6445 15.2574 51.0642 14.9063C51.4978 14.5553 51.8336 14.1299 52.0716 13.6304C52.3234 13.1308 52.4493 12.5704 52.4493 11.9494C52.4493 11.3013 52.3306 10.7477 52.0926 10.2886C51.8545 9.81602 51.5469 9.41772 51.1691 9.09367C50.8052 8.75613 50.4064 8.47931 49.9729 8.26329C49.5393 8.04727 49.1262 7.87171 48.7346 7.73671C47.8813 7.45316 47.2026 7.16962 46.6989 6.88608C46.209 6.58905 45.8594 6.27848 45.6496 5.95443C45.4397 5.61689 45.3348 5.25234 45.3348 4.86076C45.3348 4.4017 45.5165 3.98987 45.8804 3.62532C46.2444 3.24727 46.8248 3.05823 47.6223 3.05823C48.1962 3.05823 48.6789 3.16626 49.0704 3.38228C49.4764 3.5983 49.8188 3.87512 50.0988 4.21266C50.3788 4.55019 50.6097 4.8945 50.7914 5.24557L52.3234 4.39494C52.0854 3.89537 51.7568 3.42279 51.337 2.97722C50.9173 2.51816 50.4064 2.14684 49.805 1.86329C49.2173 1.56626 48.5248 1.41772 47.7273 1.41772C46.9016 1.41772 46.1671 1.57975 45.5236 1.9038C44.8802 2.21436 44.3765 2.6464 44.0126 3.2C43.6486 3.7536 43.4669 4.38145 43.4669 5.08354C43.4669 5.73165 43.5928 6.27848 43.8447 6.72405C44.1103 7.16962 44.4461 7.54766 44.852 7.85823C45.258 8.15526 45.6844 8.40506 46.1323 8.60759C46.5802 8.79664 46.9856 8.9519 47.3495 9.07342C47.909 9.26246 48.4337 9.47848 48.9235 9.72152C49.4272 9.95107 49.8331 10.2549 50.1408 10.6329C50.4484 11.011 50.6025 11.5173 50.6025 12.1519C50.6025 12.8 50.3645 13.3334 49.8889 13.7519C49.4134 14.1704 48.7838 14.3797 48.0001 14.3797C47.4125 14.3797 46.8878 14.2582 46.4261 14.0152C45.9644 13.7722 45.5446 13.4346 45.1669 13.0025C44.8029 12.5704 44.4533 12.0709 44.1175 11.5038ZM56.6437 0H54.9647V15.7975H56.6437V0ZM61.1559 10.1266V15.7975H62.8349V9.92405C62.8349 9.11392 62.6951 8.4388 62.4151 7.89873C62.1495 7.35867 61.7645 6.9536 61.2608 6.68354C60.771 6.41349 60.1905 6.27848 59.5189 6.27848C58.8473 6.27848 58.2525 6.44727 57.735 6.78481C57.2313 7.12235 56.8326 7.58145 56.5387 8.16202C56.2449 8.72911 56.098 9.38398 56.098 10.1266H56.6437C56.6437 9.68101 56.7415 9.28272 56.9375 8.93165C57.1474 8.58057 57.434 8.3038 57.798 8.10126C58.1757 7.89873 58.6093 7.79747 59.0992 7.79747C59.7846 7.79747 60.2954 7.99323 60.6312 8.38481C60.9808 8.77639 61.1559 9.35696 61.1559 10.1266ZM65.9911 2.63291C65.9911 2.92994 66.1032 3.19323 66.3269 3.42279C66.5649 3.6388 66.8378 3.74683 67.1454 3.74683C67.4674 3.74683 67.7402 3.6388 67.9639 3.42279C68.1876 3.19323 68.2997 2.92994 68.2997 2.63291C68.2997 2.32235 68.1876 2.05905 67.9639 1.84304C67.7402 1.62702 67.4674 1.51899 67.1454 1.51899C66.8378 1.51899 66.5649 1.62702 66.3269 1.84304C66.1032 2.05905 65.9911 2.32235 65.9911 2.63291ZM66.3059 6.48101V15.7975H67.9849V6.48101H66.3059ZM75.1783 16C76.2138 16 77.1091 15.8042 77.8646 15.4127C78.6345 15.0076 79.2708 14.4135 79.7745 13.6304L78.4103 12.8C78.0607 13.3671 77.6338 13.7924 77.1301 14.0759C76.6264 14.346 76.0459 14.481 75.3882 14.481C74.7309 14.481 74.1709 14.346 73.7092 14.0759C73.2475 13.8059 72.8979 13.4144 72.6599 12.9013C72.4223 12.3882 72.3031 11.7671 72.3031 11.038C72.3174 10.3223 72.4433 9.72152 72.6809 9.23544C72.9327 8.73588 73.2828 8.35779 73.7302 8.10126C74.1919 7.83121 74.7448 7.6962 75.3882 7.6962C75.9338 7.6962 76.4099 7.81095 76.8153 8.04051C77.2212 8.27006 77.536 8.58734 77.7597 8.9924C77.9977 9.39747 78.1165 9.87678 78.1165 10.4304C78.1165 10.5249 78.0955 10.6464 78.0535 10.7949C78.0116 10.9299 77.9696 11.0312 77.9276 11.0987L78.5992 10.1671H71.6735V11.5443H79.9214C79.9214 11.5173 79.9214 11.4565 79.9214 11.362C79.9357 11.254 79.9424 11.1527 79.9424 11.0582C79.9424 10.0726 79.7606 9.22196 79.3967 8.50633C79.0333 7.7907 78.5086 7.24386 77.8227 6.86582C77.1511 6.47424 76.3398 6.27848 75.3882 6.27848C74.4371 6.27848 73.5976 6.48101 72.8697 6.88608C72.1562 7.29114 71.5967 7.85823 71.1908 8.58734C70.7992 9.31645 70.6031 10.1671 70.6031 11.1392C70.6031 12.0979 70.792 12.9418 71.1698 13.6709C71.5619 14.4 72.1004 14.9739 72.7858 15.3924C73.4855 15.7975 74.283 16 75.1783 16ZM82.2438 0V15.7975H83.9227V0H82.2438ZM94.321 0V15.7975H96V0H94.321ZM86.241 11.1392C86.241 12.1384 86.4581 13.0025 86.8916 13.7316C87.3252 14.4608 87.9062 15.0211 88.6335 15.4127C89.3609 15.8042 90.1584 16 91.0261 16C91.8374 16 92.5443 15.8042 93.1458 15.4127C93.7472 15.0211 94.2161 14.4608 94.5519 13.7316C94.9015 13.0025 95.0766 12.1384 95.0766 11.1392C95.0766 10.1266 94.9015 9.26246 94.5519 8.54683C94.2161 7.81772 93.7472 7.2574 93.1458 6.86582C92.5443 6.47424 91.8374 6.27848 91.0261 6.27848C90.1584 6.27848 89.3609 6.47424 88.6335 6.86582C87.9062 7.2574 87.3252 7.81772 86.8916 8.54683C86.4581 9.26246 86.241 10.1266 86.241 11.1392ZM87.941 11.1392C87.941 10.4236 88.0879 9.81602 88.3817 9.31646C88.6893 8.81689 89.0953 8.4388 89.599 8.18228C90.1026 7.92575 90.6483 7.79747 91.2359 7.79747C91.7258 7.79747 92.2085 7.92575 92.6841 8.18228C93.1596 8.4388 93.5517 8.81689 93.8593 9.31646C94.167 9.81602 94.321 10.4236 94.321 11.1392C94.321 11.8549 94.167 12.4625 93.8593 12.962C93.5517 13.4616 93.1596 13.8397 92.6841 14.0962C92.2085 14.3527 91.7258 14.481 91.2359 14.481C90.6483 14.481 90.1026 14.3527 89.599 14.0962C89.0953 13.8397 88.6893 13.4616 88.3817 12.962C88.0879 12.4625 87.941 11.8549 87.941 11.1392Z" fill="white"/>
</svg>
