<svg width="24" height="28" viewBox="0 0 24 28" fill="none" xmlns="http://www.w3.org/2000/svg">
<path fill-rule="evenodd" clip-rule="evenodd" d="M12.2903 27.9626L12.2918 27.9994C12.2809 27.9922 12.2692 27.986 12.257 27.9809C12.245 27.9865 12.2334 27.9928 12.2224 28L12.2209 27.9632C7.67695 25.6563 4.79135 22.7769 2.97882 19.8267C2.43802 18.9491 1.9721 18.0344 1.58522 17.0907C-0.374174 12.3406 -0.0346895 7.79491 0.13479 5.52557L0.134791 5.52556C0.143297 5.41166 0.151375 5.30349 0.158713 5.20132C5.49881 4.39237 10.5185 0.97977 11.7408 0.101908C11.7981 0.063896 11.8454 0.0290659 11.8827 0C11.9202 0.0266651 11.967 0.0574517 12.0207 0.0927426L12.0288 0.098046C13.1364 0.848814 14.2942 1.53524 15.4953 2.15333C16.5531 2.70482 17.6462 3.19704 18.7688 3.62732C20.3588 4.2559 22.0297 4.69589 23.741 4.9367C23.751 5.03772 23.7619 5.14462 23.7733 5.25715C24.1912 9.35701 25.3708 20.9292 12.2903 27.9626ZM19.0454 8.58566C15.8429 8.17441 12.7899 6.20533 12.0459 5.69484L11.9588 5.63585L11.9417 5.64852C11.9226 5.66273 11.9005 5.67913 11.8743 5.69647C11.1437 6.22202 8.1446 8.26057 4.95414 8.74371C4.94976 8.80455 4.94494 8.86896 4.93987 8.93678C4.75618 11.3918 4.23784 18.3196 12.1605 22.3431L12.1607 22.3658C12.1673 22.3616 12.1744 22.358 12.1818 22.3553C12.1893 22.3579 12.1964 22.3612 12.203 22.3653V22.3419C20.0113 18.1447 19.3132 11.2373 19.0651 8.78262C19.0581 8.71337 19.0514 8.64767 19.0454 8.58566ZM11.9975 1.90051L11.9098 1.83918L11.8232 1.90216L11.8143 1.90865L11.8142 1.90873C11.7827 1.93169 11.7459 1.95848 11.7041 1.98805L11.7033 1.98861C10.6573 2.73912 6.38917 5.63928 1.85928 6.32479L1.74075 6.34273L1.73212 6.46229C1.72586 6.54888 1.71898 6.64059 1.71172 6.73722L1.71172 6.73729C1.58327 8.44807 1.33931 11.6973 2.43838 15.2496C3.59617 18.9917 6.24117 23.0616 12.0509 26.0376L12.0534 26.2486L12.2308 26.1357L12.4137 26.2523L12.4117 26.0336C18.1404 22.928 20.6761 18.7993 21.7337 15.0319C22.7376 11.4562 22.4072 8.21357 22.2333 6.5066C22.2234 6.40998 22.2141 6.31828 22.2055 6.23172L22.1937 6.11292L22.0753 6.09772C17.5283 5.51384 13.1827 2.71081 12.1188 1.98391L12.1189 1.98386L12.1152 1.98151C12.0815 1.95985 12.052 1.93904 12.0239 1.91913L12.0239 1.91912L11.9975 1.90051ZM21.4449 14.9509C20.4057 18.6525 17.9111 22.7239 12.2286 25.7915C6.4655 22.8522 3.8627 18.8381 2.72497 15.1609C1.64318 11.6644 1.88306 8.46483 2.01115 6.75636L2.0226 6.60299C6.58327 5.87426 10.836 2.98005 11.8778 2.23266L11.9131 2.20751C11.9254 2.21583 11.9382 2.22434 11.9514 2.23281C13.0135 2.95833 17.3419 5.75365 21.9188 6.37959L21.9344 6.53361C22.108 8.23834 22.4329 11.4314 21.4449 14.9509Z" fill="white"/>
<path fill-rule="evenodd" clip-rule="evenodd" d="M8.271 17.1978C8.37417 16.9037 8.49794 16.6161 8.64154 16.3367C9.22895 15.2805 9.96375 14.2989 10.8274 13.4168C11.9282 12.2718 13.1939 11.2698 14.5895 10.4382C15.1922 10.063 15.8472 9.76389 16.5367 9.54888C16.5704 9.51816 16.6375 9.51827 16.7047 9.48755L16.301 9.94713C15.8387 10.4326 15.4123 10.9459 15.0247 11.4836C14.991 11.5452 14.9574 11.5451 14.8902 11.545C14.6059 11.6178 14.313 11.6587 14.018 11.6667C14.1293 11.7769 14.2669 11.862 14.4199 11.9152C14.487 11.9461 14.6213 11.9464 14.6543 12.0388C14.6542 12.1004 14.5533 12.1927 14.5196 12.2538C14.4893 12.3253 14.4393 12.3882 14.3745 12.4366C14.3098 12.4851 14.2325 12.5173 14.1502 12.5301C13.8773 12.603 13.5955 12.6439 13.3115 12.6519C13.3113 12.7135 13.3449 12.7136 13.3784 12.7444C13.549 12.867 13.7415 12.9614 13.9474 13.0233C14.0145 13.0542 14.0144 13.085 13.9808 13.1465C13.9493 13.2145 13.8983 13.2734 13.8333 13.317C13.7682 13.3605 13.6915 13.387 13.6114 13.3937C13.1864 13.5197 12.7476 13.6021 12.3028 13.6394L12.2693 13.6393C12.3613 13.7206 12.4623 13.7929 12.5706 13.8551C12.775 13.9456 12.9883 14.018 13.2076 14.0714C13.2412 14.0714 13.2747 14.1023 13.2411 14.133C13.0871 14.3554 12.894 14.5527 12.6696 14.7169C12.5865 14.7803 12.4896 14.8267 12.3855 14.8531C12.2813 14.8794 12.1722 14.8852 12.0654 14.87L11.2937 14.8687C11.0919 14.8633 10.8899 14.8732 10.6898 14.8985C10.5303 14.9194 10.3858 14.9964 10.2869 15.1131C9.97834 15.4719 9.71843 15.8637 9.51292 16.2801L9.41187 16.4647C9.38221 16.5715 9.32348 16.6697 9.24119 16.7501C9.1589 16.8304 9.05576 16.8904 8.94139 16.9242C8.70348 16.9821 8.4772 17.0744 8.271 17.1978Z" fill="white"/>
</svg>
